# Blender 4.1.1
# www.blender.org
mtllib a4.mtl
o thruster
v 0.171237 0.821187 4.690001
v 0.335895 0.795166 4.690001
v 0.487645 0.752909 4.690001
v 0.620654 0.696042 4.690001
v 0.729811 0.626748 4.690001
v 0.810924 0.547691 4.690001
v 0.860871 0.461910 4.690001
v 0.877737 0.372700 4.690001
v 0.860871 0.283491 4.690001
v 0.810924 0.197709 4.690001
v 0.729811 0.118653 4.690001
v 0.620654 0.049359 4.690001
v 0.487645 -0.007509 4.690001
v 0.335895 -0.049766 4.690001
v 0.171237 -0.075787 4.690001
v 0.000000 -0.084574 4.690001
v 0.000000 0.829974 4.690001
v 0.070655 0.727907 11.189999
v 0.138595 0.707298 11.189999
v 0.201208 0.673830 11.189999
v 0.256090 0.628790 11.189999
v 0.301130 0.573909 11.189999
v 0.334598 0.511295 11.189999
v 0.355207 0.443355 11.189999
v 0.362166 0.372700 11.189999
v 0.355207 0.302045 11.189999
v 0.334598 0.234105 11.189999
v 0.301130 0.171492 11.189999
v 0.256090 0.116610 11.189999
v 0.201208 0.071571 11.189999
v 0.138595 0.038103 11.189999
v 0.070655 0.017493 11.189999
v 0.000000 0.010534 11.189999
v 0.000000 0.734866 11.189999
v 0.118549 0.683191 4.690000
v 0.232543 0.665177 4.690000
v 0.337600 0.635922 4.690000
v 0.429683 0.596552 4.690000
v 0.505254 0.548579 4.690000
v 0.561409 0.493848 4.690000
v 0.595988 0.434461 4.690000
v 0.607664 0.372700 4.690000
v 0.595988 0.310940 4.690000
v 0.561409 0.251553 4.690000
v 0.505254 0.196821 4.690000
v 0.429683 0.148848 4.690000
v 0.337600 0.109479 4.690000
v 0.232543 0.080224 4.690000
v 0.118549 0.062209 4.690000
v 0.000000 0.056126 4.690000
v 0.000000 0.689274 4.690000
v 0.000000 0.372700 11.190003
v -0.171237 0.821187 4.690001
v -0.335895 0.795166 4.690001
v -0.487645 0.752909 4.690001
v -0.620654 0.696042 4.690001
v -0.729811 0.626748 4.690001
v -0.810924 0.547691 4.690001
v -0.860871 0.461910 4.690001
v -0.877737 0.372700 4.690001
v -0.860871 0.283491 4.690001
v -0.810924 0.197709 4.690001
v -0.729811 0.118653 4.690001
v -0.620654 0.049359 4.690001
v -0.487645 -0.007509 4.690001
v -0.335895 -0.049766 4.690001
v -0.171237 -0.075787 4.690001
v -0.070655 0.727907 11.189999
v -0.138595 0.707298 11.189999
v -0.201208 0.673830 11.189999
v -0.256090 0.628790 11.189999
v -0.301130 0.573909 11.189999
v -0.334598 0.511295 11.189999
v -0.355207 0.443355 11.189999
v -0.362166 0.372700 11.189999
v -0.355207 0.302045 11.189999
v -0.334598 0.234105 11.189999
v -0.301130 0.171492 11.189999
v -0.256090 0.116610 11.189999
v -0.201208 0.071571 11.189999
v -0.138595 0.038103 11.189999
v -0.070655 0.017493 11.189999
v -0.118549 0.683191 4.690000
v -0.232543 0.665177 4.690000
v -0.337600 0.635922 4.690000
v -0.429683 0.596552 4.690000
v -0.505254 0.548579 4.690000
v -0.561409 0.493848 4.690000
v -0.595988 0.434461 4.690000
v -0.607664 0.372700 4.690000
v -0.595988 0.310940 4.690000
v -0.561409 0.251553 4.690000
v -0.505254 0.196821 4.690000
v -0.429683 0.148848 4.690000
v -0.337600 0.109479 4.690000
v -0.232543 0.080224 4.690000
v -0.118549 0.062209 4.690000
vn 0.5355 -0.8435 0.0422
vn 0.9797 0.1852 0.0767
vn 0.8623 0.5021 0.0660
vn 0.0512 -0.9986 0.0151
vn 0.8622 -0.5020 0.0685
vn 0.1561 0.9876 0.0166
vn 0.1561 -0.9876 0.0166
vn 0.6969 -0.7150 0.0551
vn 0.2682 -0.9631 0.0235
vn 0.2682 0.9631 0.0212
vn 0.6970 0.7152 0.0518
vn 0.9796 -0.1852 0.0777
vn 0.3929 0.9190 0.0315
vn 0.5355 0.8436 0.0388
vn 0.0512 0.9986 0.0151
vn 0.3929 -0.9190 0.0315
vn 0.6988 -0.7153 -0.0064
vn 0.6987 -0.7154 -0.0064
vn 0.7001 -0.7141 -0.0064
vn 0.2689 -0.9628 -0.0270
vn 0.2690 -0.9628 -0.0270
vn 0.2699 -0.9625 -0.0270
vn 0.2690 0.9628 -0.0270
vn 0.2689 0.9628 -0.0270
vn 0.2712 0.9622 -0.0270
vn 0.6987 0.7154 -0.0064
vn 0.6988 0.7153 -0.0064
vn 0.7007 0.7134 -0.0063
vn 0.9826 -0.1853 0.0117
vn 0.9826 -0.1855 0.0117
vn 0.9826 -0.1852 0.0117
vn 0.3940 0.9188 -0.0223
vn 0.3965 0.9178 -0.0222
vn 0.5368 0.8435 -0.0155
vn 0.5369 0.8435 -0.0155
vn 0.5393 0.8420 -0.0154
vn 0.0514 0.9982 -0.0313
vn 0.0525 0.9981 -0.0313
vn 0.3940 -0.9188 -0.0223
vn 0.3954 -0.9183 -0.0223
vn 0.5369 -0.8435 -0.0155
vn 0.5368 -0.8435 -0.0155
vn 0.5384 -0.8426 -0.0154
vn 0.9826 0.1855 0.0117
vn 0.9826 0.1853 0.0117
vn 0.9828 0.1844 0.0117
vn 0.8646 0.5025 0.0039
vn 0.8646 0.5024 0.0039
vn 0.8657 0.5006 0.0040
vn 0.0514 -0.9982 -0.0313
vn 0.0510 -0.9982 -0.0313
vn 0.8646 -0.5024 0.0039
vn 0.8646 -0.5025 0.0039
vn 0.8653 -0.5013 0.0039
vn 0.1566 0.9872 -0.0299
vn 0.1565 0.9872 -0.0299
vn 0.1583 0.9869 -0.0299
vn 0.1565 -0.9872 -0.0299
vn 0.1566 -0.9872 -0.0299
vn 0.1569 -0.9872 -0.0299
vn 0.7720 -0.6336 0.0499
vn 0.9921 0.0977 0.0787
vn 0.9542 0.2895 0.0751
vn 0.0980 -0.9951 0.0146
vn 0.9545 -0.2895 0.0716
vn 0.2902 0.9567 0.0217
vn 0.2902 -0.9567 0.0217
vn 0.8802 -0.4705 0.0619
vn 0.4712 -0.8816 0.0262
vn 0.4712 0.8815 0.0315
vn 0.8799 0.4703 0.0671
vn 0.9922 -0.0977 0.0775
vn 0.6340 0.7725 0.0373
vn 0.7718 0.6334 0.0560
vn 0.0980 0.9951 0.0146
vn 0.6340 -0.7725 0.0373
vn -0.5355 -0.8435 0.0422
vn -0.9797 0.1852 0.0767
vn -0.8623 0.5021 0.0660
vn -0.0512 -0.9986 0.0151
vn -0.8622 -0.5020 0.0685
vn -0.1561 0.9876 0.0166
vn -0.1561 -0.9876 0.0166
vn -0.6969 -0.7150 0.0551
vn -0.2682 -0.9631 0.0235
vn -0.2682 0.9631 0.0212
vn -0.6970 0.7152 0.0518
vn -0.9796 -0.1852 0.0777
vn -0.3929 0.9190 0.0315
vn -0.5355 0.8436 0.0388
vn -0.0512 0.9986 0.0151
vn -0.3929 -0.9190 0.0315
vn -0.6988 -0.7153 -0.0064
vn -0.7007 -0.7134 -0.0063
vn -0.6987 -0.7154 -0.0064
vn -0.2689 -0.9628 -0.0270
vn -0.2699 -0.9625 -0.0270
vn -0.2690 -0.9628 -0.0270
vn -0.2690 0.9628 -0.0270
vn -0.2712 0.9622 -0.0270
vn -0.2689 0.9628 -0.0270
vn -0.6987 0.7154 -0.0064
vn -0.7001 0.7141 -0.0064
vn -0.6988 0.7153 -0.0064
vn -0.9826 -0.1853 0.0117
vn -0.9828 -0.1844 0.0117
vn -0.9826 -0.1855 0.0117
vn -0.3940 0.9188 -0.0223
vn -0.3965 0.9178 -0.0222
vn -0.5368 0.8435 -0.0155
vn -0.5384 0.8426 -0.0154
vn -0.5369 0.8435 -0.0155
vn -0.0514 0.9982 -0.0313
vn -0.0525 0.9981 -0.0313
vn -0.3940 -0.9188 -0.0223
vn -0.3954 -0.9183 -0.0223
vn -0.5369 -0.8435 -0.0155
vn -0.5393 -0.8420 -0.0154
vn -0.5368 -0.8435 -0.0155
vn -0.9826 0.1855 0.0117
vn -0.9826 0.1852 0.0117
vn -0.9826 0.1853 0.0117
vn -0.8646 0.5025 0.0039
vn -0.8653 0.5013 0.0039
vn -0.8646 0.5024 0.0039
vn -0.0514 -0.9982 -0.0313
vn -0.0510 -0.9982 -0.0313
vn -0.8646 -0.5024 0.0039
vn -0.8657 -0.5006 0.0040
vn -0.8646 -0.5025 0.0039
vn -0.1566 0.9872 -0.0299
vn -0.1583 0.9869 -0.0299
vn -0.1565 0.9872 -0.0299
vn -0.1565 -0.9872 -0.0299
vn -0.1569 -0.9872 -0.0299
vn -0.1566 -0.9872 -0.0299
vn -0.7720 -0.6336 0.0499
vn -0.9921 0.0977 0.0787
vn -0.9542 0.2895 0.0751
vn -0.0980 -0.9951 0.0146
vn -0.9545 -0.2895 0.0716
vn -0.2902 0.9567 0.0217
vn -0.2902 -0.9567 0.0217
vn -0.8802 -0.4705 0.0619
vn -0.4712 -0.8816 0.0262
vn -0.4712 0.8815 0.0315
vn -0.8799 0.4703 0.0671
vn -0.9922 -0.0977 0.0775
vn -0.6340 0.7725 0.0373
vn -0.7718 0.6334 0.0560
vn -0.0980 0.9951 0.0146
vn -0.6340 -0.7725 0.0373
vt -0.000000 -0.000000
vt 0.000000 1.000148
vt 0.000000 1.000000
vt 0.000000 1.000148
vt 0.000000 1.000462
vt -0.000000 1.000148
vt 0.000000 1.000462
vt 0.000000 0.999638
vt 0.000000 0.999637
vt 0.000000 0.999637
vt 0.000000 0.998951
vt 0.000000 1.000462
vt 0.000000 1.000148
vt 0.000000 1.000148
vt 1.000000 1.000000
vt 1.000000 0.000000
s 0
f 28/1/1 12/2/1 11/3/1
f 24/1/2 8/4/2 7/5/2
f 23/1/3 7/5/3 6/3/3
f 32/1/4 16/6/4 15/7/4
f 26/1/5 10/3/5 9/8/5
f 18/1/6 2/3/6 1/9/6
f 14/3/7 32/1/7 15/7/7
f 27/1/8 11/3/8 10/3/8
f 30/1/9 14/3/9 13/7/9
f 19/1/10 3/10/10 2/11/10
f 22/1/11 6/3/11 5/12/11
f 25/1/12 9/8/12 8/4/12
f 3/10/13 21/1/13 4/13/13
f 21/1/14 5/12/14 4/13/14
f 17/14/15 18/1/15 1/9/15
f 29/1/16 13/7/16 12/2/16
f 45/15/17 44/15/18 52/16/19
f 48/15/20 47/15/21 52/16/22
f 37/15/23 36/15/24 52/16/25
f 40/15/26 39/15/27 52/16/28
f 43/15/29 42/15/30 52/16/31
f 38/15/32 37/15/32 52/16/33
f 39/15/34 38/15/35 52/16/36
f 35/15/37 51/15/37 52/16/38
f 47/15/39 46/15/39 52/16/40
f 46/15/41 45/15/42 52/16/43
f 42/15/44 41/15/45 52/16/46
f 41/15/47 40/15/48 52/16/49
f 50/15/50 49/15/50 52/16/51
f 44/15/52 43/15/53 52/16/54
f 36/15/55 35/15/56 52/16/57
f 49/15/58 48/15/59 52/16/60
f 28/1/61 29/1/61 12/2/61
f 24/1/62 25/1/62 8/4/62
f 23/1/63 24/1/63 7/5/63
f 32/1/64 33/1/64 16/6/64
f 26/1/65 27/1/65 10/3/65
f 18/1/66 19/1/66 2/3/66
f 14/3/67 31/1/67 32/1/67
f 27/1/68 28/1/68 11/3/68
f 30/1/69 31/1/69 14/3/69
f 19/1/70 20/1/70 3/10/70
f 22/1/71 23/1/71 6/3/71
f 25/1/72 26/1/72 9/8/72
f 3/10/73 20/1/73 21/1/73
f 21/1/74 22/1/74 5/12/74
f 17/14/75 34/1/75 18/1/75
f 29/1/76 30/1/76 13/7/76
f 78/1/77 63/3/77 64/2/77
f 74/1/78 59/5/78 60/4/78
f 73/1/79 58/3/79 59/5/79
f 82/1/80 67/7/80 16/6/80
f 76/1/81 61/8/81 62/3/81
f 68/1/82 53/9/82 54/3/82
f 66/3/83 67/7/83 82/1/83
f 77/1/84 62/3/84 63/3/84
f 80/1/85 65/7/85 66/3/85
f 69/1/86 54/11/86 55/10/86
f 72/1/87 57/12/87 58/3/87
f 75/1/88 60/4/88 61/8/88
f 55/10/89 56/13/89 71/1/89
f 71/1/90 56/13/90 57/12/90
f 17/14/91 53/9/91 68/1/91
f 79/1/92 64/2/92 65/7/92
f 93/15/93 52/16/94 92/15/95
f 96/15/96 52/16/97 95/15/98
f 85/15/99 52/16/100 84/15/101
f 88/15/102 52/16/103 87/15/104
f 91/15/105 52/16/106 90/15/107
f 86/15/108 52/16/109 85/15/108
f 87/15/110 52/16/111 86/15/112
f 83/15/113 52/16/114 51/15/113
f 95/15/115 52/16/116 94/15/115
f 94/15/117 52/16/118 93/15/119
f 90/15/120 52/16/121 89/15/122
f 89/15/123 52/16/124 88/15/125
f 50/15/126 52/16/127 97/15/126
f 92/15/128 52/16/129 91/15/130
f 84/15/131 52/16/132 83/15/133
f 97/15/134 52/16/135 96/15/136
f 78/1/137 64/2/137 79/1/137
f 74/1/138 60/4/138 75/1/138
f 73/1/139 59/5/139 74/1/139
f 82/1/140 16/6/140 33/1/140
f 76/1/141 62/3/141 77/1/141
f 68/1/142 54/3/142 69/1/142
f 66/3/143 82/1/143 81/1/143
f 77/1/144 63/3/144 78/1/144
f 80/1/145 66/3/145 81/1/145
f 69/1/146 55/10/146 70/1/146
f 72/1/147 58/3/147 73/1/147
f 75/1/148 61/8/148 76/1/148
f 55/10/149 71/1/149 70/1/149
f 71/1/150 57/12/150 72/1/150
f 17/14/151 68/1/151 34/1/151
f 79/1/152 65/7/152 80/1/152
o hull
v 0.465839 0.372670 -9.223600
v 1.304350 0.372671 -6.055900
v 0.465839 -0.074535 -9.316770
v 0.465839 -0.260870 -6.074530
v -0.465839 -0.260870 -6.074530
v -0.465839 -0.074535 -9.316770
v 1.304350 -0.093168 -6.055900
v 0.465839 1.024840 -5.776400
v 1.304350 0.139752 -6.055900
v -0.465839 1.024840 -5.776400
v -0.465839 1.118010 -4.472050
v 0.465839 1.118010 -4.472050
v -0.465839 0.372670 -9.223600
v 2.608700 0.186335 -4.658390
v 2.608700 0.372671 -4.658390
v 1.490680 0.559006 -5.590060
v 1.263950 -0.133230 -4.949590
v 0.000000 0.931677 3.354040
v 2.422360 -0.186335 -4.658390
v 1.304350 0.559006 4.658390
v 2.683230 1.844720 3.540370
v 2.683230 1.844720 4.285710
v 2.757760 1.844720 4.285710
v 2.757760 1.844720 3.540370
v 1.937890 0.540373 3.913040
v 2.012420 0.540373 3.913040
v 1.937890 0.503106 -0.000000
v 2.012420 0.503106 -0.000000
v 1.304350 0.186335 4.658390
v 5.590060 0.000000 5.590060
v 3.447210 0.372671 4.006210
v 3.447210 0.093168 4.006210
v 5.590060 -0.186335 5.590060
v -5.590060 0.000000 5.590060
v -5.590060 -0.186335 5.590060
v -3.447210 0.093168 4.006210
v -3.447210 0.372671 4.006210
v -2.720500 1.844720 3.540370
v -1.975160 0.540373 3.913040
v -2.720500 1.844720 4.285710
v -1.975160 0.503106 -0.000000
v -1.900620 0.540373 3.913040
v -1.900620 0.503106 -0.000000
v -2.645960 1.844720 3.540370
v -2.645960 1.844720 4.285710
v 0.000000 1.118010 2.422360
v -1.304350 0.559006 4.658390
v 0.000000 0.931677 5.590060
v 0.000000 -0.372671 2.422360
v 0.000000 -0.186335 5.031060
v -1.304350 0.186335 4.658390
v 0.000000 0.372671 4.099380
v 0.000000 0.931677 -3.354040
v -1.304350 0.372671 -6.055900
v -1.304350 -0.093168 -6.055900
v -1.304350 0.139752 -6.055900
v -1.263950 -0.133230 -4.949590
v 6.149070 -0.093167 3.540370
v 6.149070 -0.279503 3.540370
v -6.149070 -0.093167 3.540370
v -6.149070 -0.279503 3.540370
v -2.608700 0.186335 -4.658390
v -2.608700 0.372671 -4.658390
v -1.490680 0.559006 -5.590060
v -2.422360 -0.186335 -4.658390
vn 0.9653 0.0532 -0.2555
vn -0.0000 -0.9984 -0.0574
vn 0.1970 -0.9788 -0.0563
vn 0.5747 0.8041 -0.1521
vn 0.9685 -0.0000 -0.2490
vn -0.0000 0.9975 -0.0712
vn -0.0000 0.9826 -0.1859
vn -0.0000 0.2040 -0.9790
vn 0.6010 0.7972 -0.0569
vn 0.7311 -0.0000 -0.6823
vn 0.6153 0.4475 -0.6489
vn 0.9285 -0.0000 -0.3714
vn 0.9993 -0.0000 0.0365
vn 0.0696 0.9163 -0.3944
vn -0.0000 0.9997 0.0238
vn 0.5208 0.8522 0.0513
vn 0.0156 -0.9709 -0.2390
vn 0.1620 0.9868 0.0029
vn -0.0000 1.0000 -0.0000
vn -0.0000 -0.2747 0.9615
vn -0.0000 0.9351 -0.3544
vn 0.1966 -0.9801 -0.0283
vn 0.1129 -0.9931 0.0326
vn -0.5944 -0.0000 0.8042
vn 0.5944 -0.0000 0.8042
vn -0.8682 -0.4961 -0.0000
vn -0.8688 -0.4951 0.0047
vn 0.8688 0.4951 -0.0047
vn 0.8682 0.4961 -0.0000
vn 0.2912 -0.0000 0.9567
vn -0.0542 -0.9980 0.0334
vn -0.3109 0.9488 0.0558
vn -0.2920 -0.9540 0.0681
vn -0.0975 0.8534 0.5120
vn 0.0167 -0.9362 0.3511
vn -0.0167 -0.9362 0.3511
vn 0.2489 0.9685 0.0045
vn 0.3109 0.9488 0.0558
vn 0.4354 0.8998 -0.0290
vn 0.2920 -0.9540 0.0681
vn -0.0000 -0.9999 -0.0132
vn 0.3812 -0.9244 0.0087
vn -0.9653 0.0532 -0.2555
vn -0.1970 -0.9788 -0.0563
vn -0.5747 0.8041 -0.1521
vn -0.9685 -0.0000 -0.2490
vn -0.6010 0.7972 -0.0569
vn -0.3812 -0.9244 0.0087
vn -0.1966 -0.9801 -0.0283
vn -0.1129 -0.9931 0.0326
vn 0.0975 0.8534 0.5120
vn 0.3939 -0.0000 0.9191
vn -0.3939 -0.0000 0.9191
vn 0.0842 0.9964 -0.0081
vn -0.9648 -0.0000 -0.2631
vn -0.1437 -0.9896 0.0058
vn 0.1437 0.9896 -0.0058
vn 0.9181 -0.0000 -0.3964
vn 0.8875 -0.4438 0.1242
vn 0.6917 -0.3458 -0.6340
vn 0.8682 -0.4961 -0.0000
vn 0.8688 -0.4951 0.0047
vn -0.8688 0.4951 -0.0047
vn -0.8682 0.4961 -0.0000
vn 0.1841 0.9827 -0.0178
vn -0.9648 -0.0000 0.2631
vn 0.1437 -0.9896 0.0058
vn -0.1437 0.9896 -0.0058
vn -0.9181 -0.0000 -0.3964
vn -0.1841 0.9827 -0.0178
vn -0.1308 -0.9914 0.0020
vn -0.0454 -0.9990 -0.0064
vn 0.1308 -0.9914 0.0020
vn -0.0842 0.9964 -0.0081
vn -0.7311 -0.0000 -0.6823
vn -0.6153 0.4475 -0.6489
vn -0.9285 -0.0000 -0.3714
vn -0.9993 -0.0000 0.0365
vn -0.0696 0.9163 -0.3944
vn -0.5208 0.8522 0.0513
vn -0.0156 -0.9709 -0.2390
vn -0.1620 0.9868 0.0029
vn -0.2912 -0.0000 0.9567
vn 0.0542 -0.9980 0.0334
vn -0.2489 0.9685 0.0045
vn -0.4354 0.8998 -0.0290
vn -0.8875 -0.4438 0.1242
vn -0.6917 -0.3458 -0.6340
vn 0.0454 -0.9990 -0.0064
vt 0.790100 0.367800
vt 0.664200 0.393100
vt 0.790100 0.349900
vt 0.853100 0.118900
vt 0.852900 0.089300
vt 0.967600 0.087700
vt 0.967600 0.120400
vt 0.852400 0.150500
vt 0.303600 0.071300
vt 0.315100 0.036300
vt 0.421600 0.070800
vt 0.660500 0.376100
vt 0.303500 0.102100
vt 0.260800 0.071200
vt 0.421600 0.102800
vt 0.826700 0.349900
vt 0.817100 0.330700
vt 0.950000 0.331300
vt 0.817300 0.313200
vt 0.647100 0.544700
vt 0.638400 0.564200
vt 0.586300 0.555600
vt 0.454800 0.106700
vt 0.512100 0.106700
vt 0.499000 0.122300
vt 0.454800 0.071100
vt 0.549900 0.051200
vt 0.554800 0.071100
vt 0.297600 0.032200
vt 0.658400 0.359000
vt 0.021600 0.086200
vt 0.260700 0.102100
vt 0.810100 0.149500
vt 0.837700 0.152100
vt 0.801300 0.177200
vt 0.059200 0.800600
vt 0.413200 0.852800
vt 0.450800 0.806600
vt 0.108000 0.398000
vt 0.142000 0.394500
vt 0.142000 0.399000
vt 0.075000 0.401500
vt 0.108000 0.393600
vt 0.175000 0.401000
vt 0.175000 0.405500
vt 0.589600 0.136600
vt 0.951100 0.206200
vt 0.873400 0.208000
vt 0.950900 0.195900
vt 0.551000 0.206000
vt 0.628700 0.207800
vt 0.628700 0.218100
vt 0.216400 0.334100
vt 0.208500 0.367200
vt 0.200000 0.334300
vt 0.294600 0.367200
vt 0.095700 0.334100
vt 0.175000 0.300500
vt 0.090100 0.300500
vt 0.075000 0.307000
vt 0.173800 0.382200
vt 0.139000 0.385400
vt 0.173200 0.377600
vt 0.075600 0.382200
vt 0.104300 0.389000
vt 0.104900 0.393600
vt 0.139600 0.390000
vt 0.873400 0.218200
vt 0.795500 0.218200
vt 0.145000 0.748400
vt 0.059300 0.696200
vt 0.022800 0.748400
vt 0.644000 0.104800
vt 0.567600 0.105000
vt 0.589400 0.073200
vt 0.751100 0.184800
vt 0.751000 0.224600
vt 0.751000 0.264500
vt 0.706600 0.231100
vt 0.795500 0.231100
vt 0.365000 0.748500
vt 0.826700 0.367800
vt 0.952600 0.393100
vt 0.852000 0.057700
vt 0.314900 0.137100
vt 0.956100 0.376100
vt 0.958400 0.359000
vt 0.809700 0.059000
vt 0.706600 0.218100
vt 0.083800 0.883400
vt 0.683800 0.320900
vt 0.550000 0.330700
vt 0.550300 0.313200
vt 0.919000 0.796800
vt 0.624200 0.979000
vt 0.538400 0.967500
vt 0.023400 0.965900
vt 0.104000 0.988400
vt 0.683600 0.338400
vt 0.525000 0.505500
vt 0.225000 0.505500
vt 0.523200 0.466400
vt 0.300000 0.456100
vt 0.200000 0.456100
vt 0.207100 0.435500
vt 0.220700 0.334100
vt 0.215100 0.300500
vt 0.200000 0.307000
vt 0.300000 0.300500
vt 0.169600 0.367200
vt 0.083500 0.367200
vt 0.091400 0.334100
vt 0.075000 0.334300
vt 0.816200 0.295700
vt 0.950000 0.305400
vt 0.949700 0.287900
vt 0.917600 0.779300
vt 0.537700 0.607100
vt 0.621000 0.594800
vt 0.413300 0.644300
vt 0.104200 0.508500
vt 0.023600 0.530900
vt 0.682900 0.305400
vt 0.682700 0.287900
vt 0.083900 0.613500
vt 0.588200 0.875500
vt 0.551500 0.795300
vt 0.587100 0.699300
vt 0.550000 0.306000
vt 0.711300 0.544700
vt 0.772100 0.555600
vt 0.720000 0.564200
vt 0.454800 0.091000
vt 0.499000 0.106600
vt 0.512100 0.091000
vt 0.554800 0.090900
vt 0.549900 0.071100
vt 0.454800 0.090900
vt 0.297400 0.141200
vt 0.800700 0.031400
vt 0.837300 0.056200
vt 0.450800 0.690400
vt 0.524700 0.505600
vt 0.524700 0.544700
vt 0.225000 0.518900
vt 0.300000 0.476700
vt 0.207100 0.456100
vt 0.200000 0.476700
vt 0.550100 0.779300
vt 0.075000 0.406000
vt 0.551200 0.195700
vt 0.075000 0.377600
vt 0.816400 0.313100
s 0
f 98/17/153 99/18/153 100/19/153
f 101/20/154 102/21/154 103/22/154
f 100/23/155 104/24/155 101/20/155
f 105/25/156 99/26/156 98/27/156
f 99/18/157 106/28/157 100/19/157
f 107/29/158 109/30/158 105/25/158
f 110/31/159 105/25/159 98/27/159
f 103/32/160 98/17/160 100/19/160
f 100/23/154 101/20/154 103/22/154
f 105/25/161 109/30/161 99/26/161
f 111/33/162 106/34/162 112/35/162
f 106/36/163 113/37/163 112/38/163
f 113/39/164 106/40/164 99/41/164
f 114/42/165 104/43/165 106/44/165
f 113/45/166 99/26/166 109/30/166
f 106/28/157 104/46/157 100/19/157
f 115/47/167 109/30/167 108/48/167
f 109/30/168 115/47/168 113/45/168
f 114/49/169 106/50/169 116/51/169
f 117/52/170 112/53/170 113/54/170
f 119/55/171 121/56/171 118/57/171
f 119/55/172 123/58/172 120/59/172
f 118/57/173 125/60/173 124/61/173
f 104/24/174 114/49/174 101/20/174
f 101/20/175 114/49/175 126/62/175
f 127/63/176 129/64/176 130/65/176
f 131/66/177 133/67/177 134/68/177
f 135/69/178 136/70/178 137/71/178
f 138/72/179 136/70/179 135/69/179
f 139/73/180 140/74/180 141/75/180
f 139/73/181 141/75/181 142/76/181
f 138/77/173 141/78/173 140/79/173
f 136/80/172 142/81/172 137/82/172
f 137/82/171 141/78/171 135/83/171
f 128/84/182 126/85/182 129/64/182
f 116/51/183 126/62/183 114/49/183
f 143/86/184 144/87/184 145/88/184
f 146/89/185 147/90/185 148/91/185
f 147/92/186 126/85/186 149/93/186
f 145/94/187 144/95/187 149/93/187
f 145/94/188 149/93/188 117/96/188
f 113/54/189 150/97/189 117/52/189
f 143/86/190 145/88/190 117/52/190
f 143/86/191 117/52/191 150/97/191
f 146/89/192 126/62/192 147/90/192
f 146/89/193 102/21/193 101/20/193
f 101/20/194 126/62/194 146/89/194
f 110/98/195 103/32/195 151/99/195
f 103/22/196 102/21/196 152/100/196
f 107/29/197 110/31/197 151/101/197
f 151/99/198 103/32/198 153/102/198
f 107/29/199 151/101/199 108/48/199
f 103/32/198 152/103/198 153/102/198
f 102/21/200 146/89/200 148/91/200
f 152/100/201 102/21/201 154/104/201
f 102/21/202 148/91/202 154/104/202
f 149/93/203 148/105/203 147/92/203
f 144/95/204 148/105/204 149/93/204
f 117/96/205 149/93/205 126/85/205
f 128/106/206 112/53/206 117/52/206
f 155/107/207 130/108/207 127/109/207
f 111/110/208 156/111/208 130/112/208
f 112/53/209 127/113/209 155/114/209
f 111/33/210 155/107/210 156/115/210
f 111/116/211 126/117/211 116/118/211
f 106/119/212 111/120/212 116/121/212
f 123/122/213 121/123/213 120/124/213
f 123/122/214 125/125/214 121/123/214
f 124/126/215 122/127/215 118/128/215
f 118/128/216 122/127/216 119/129/216
f 112/53/217 128/106/217 127/113/217
f 157/130/218 132/131/218 131/132/218
f 159/133/219 132/134/219 158/135/219
f 160/136/220 157/137/220 131/138/220
f 159/139/221 157/130/221 160/140/221
f 160/136/222 131/138/222 134/141/222
f 111/110/223 130/112/223 129/142/223
f 111/110/224 129/142/224 126/143/224
f 159/133/225 133/144/225 132/134/225
f 144/87/226 160/136/226 134/141/226
f 159/139/227 160/140/227 153/145/227
f 153/146/228 160/147/228 161/148/228
f 161/149/229 151/150/229 153/151/229
f 153/152/230 152/153/230 154/154/230
f 161/155/231 108/48/231 151/101/231
f 108/48/232 161/155/232 115/47/232
f 154/104/233 162/156/233 153/157/233
f 144/87/234 161/158/234 160/136/234
f 134/68/235 148/105/235 144/95/235
f 162/156/236 154/104/236 148/91/236
f 161/158/237 144/87/237 150/97/237
f 143/86/238 150/97/238 144/87/238
f 159/159/239 162/160/239 148/161/239
f 153/162/240 162/163/240 159/164/240
f 159/133/241 148/165/241 133/144/241
f 107/29/158 108/48/158 109/30/158
f 110/31/159 107/29/159 105/25/159
f 103/32/160 110/98/160 98/17/160
f 119/55/171 120/59/171 121/56/171
f 119/55/172 122/166/172 123/58/172
f 118/57/173 121/56/173 125/60/173
f 127/63/176 128/84/176 129/64/176
f 131/66/177 132/167/177 133/67/177
f 138/77/173 135/83/173 141/78/173
f 136/80/172 139/168/172 142/81/172
f 137/82/171 142/81/171 141/78/171
f 128/84/182 117/96/182 126/85/182
f 155/107/207 156/115/207 130/108/207
f 111/33/210 112/35/210 155/107/210
f 157/130/218 158/169/218 132/131/218
f 159/139/221 158/169/221 157/130/221
f 134/68/235 133/67/235 148/105/235
o hardpoints.primary
v -2.04969 0.186335 -5.40373
v 2.04969 0.186335 -5.40373
p 163
p 164
o hardpoints.secondary
v 0 -0.186335 -5.59006
p 165
